# xmcd CD database file
#
# Track frame offsets:
#	150
#	14402
#	31742
#	49382
#	68591
#	80832
#	102056
#	117515
#	137661
#	158469
#	172491
#	191317
#	208323
#
# Disc length: 2996 seconds
#
# Revision: 0
# Processed by: cddbd v1.5PL3 Copyright (c) Steve Scherf et al.
# Submitted via: CDex 1.50Beta7
#
DISCID=b30bb20d
DTITLE=Aaron Watson - The Honky Tonk Kid
DYEAR=2004
DGENRE=Country
TTITLE0=The Right Place
TTITLE1=The Honky Tonk Kid (featuring Willie Nelson)
TTITLE2=Reckless
TTITLE3=What She Don't Know
TTITLE4=If You're Not In Love
TTITLE5=Let's Lose Some Sleep Tonight
TTITLE6=Honky Tonkin' Around Texas (featuring Asleep at the Wheel)
TTITLE7=Mackenzie Park
TTITLE8=Fool's Paradise
TTITLE9=Diesel Driving Daddy (featuring Dale Watson)
TTITLE10=Next To Heaven
TTITLE11=For What It's Worth
TTITLE12=Will You Love Me In A Trailer?
EXTD=YEAR: 2004
EXTT0=
EXTT1=
EXTT2=
EXTT3=
EXTT4=
EXTT5=
EXTT6=
EXTT7=
EXTT8=
EXTT9=
EXTT10=
EXTT11=
EXTT12=
PLAYORDER=
